<?xml version="1.0"?>
<svg width="330" height="52" xmlns="http://www.w3.org/2000/svg" xmlns:svg="http://www.w3.org/2000/svg" preserveAspectRatio="xMidYMid meet" version="1.0">
 <g class="layer">
  <title>Layer 1</title>
  <g fill="#000000" id="svg_1" transform="matrix(0.1 0 0 -0.1 0 0)">
   <path d="m1037,-54c-32,-12 -167,-119 -167,-132c0,-9 23,8 81,57c31,27 68,53 83,59c15,5 82,10 149,10c101,0 135,-4 205,-26c118,-36 194,-73 190,-93c-5,-23 -227,-33 -588,-25c-293,6 -511,-4 -675,-31c-92,-15 -106,-23 -103,-65l1,-25l4,25c7,37 12,40 104,57c64,11 180,16 489,19c223,2 549,6 725,9c225,5 342,3 395,-5c41,-7 104,-15 140,-19c57,-5 65,-9 71,-31c6,-22 7,-20 8,11l1,36l-82,6c-91,6 -155,24 -359,98c-156,56 -210,65 -459,73c-137,5 -183,3 -213,-8z" fill="#e11138" id="svg_2"/>
   <path d="m70,-249l0,-141l25,0l26,0l-3,138c-3,134 -4,137 -25,140c-23,3 -23,3 -23,-137z" fill="#e11138" id="svg_3"/>
   <path d="m2240,-255l0,-147l79,3c95,5 115,19 131,92c14,65 4,132 -25,165c-21,24 -31,27 -104,30l-81,4l0,-147zm149,86c23,-15 27,-125 7,-156c-14,-21 -24,-25 -61,-25l-45,0l0,95l0,95l43,0c23,0 48,-4 56,-9z" fill="#e11138" id="svg_4"/>
   <path d="m2500,-256c0,-145 0,-145 23,-142c19,3 22,10 25,61c4,79 28,79 67,-3c23,-48 33,-60 52,-60c29,0 29,0 -3,61c-14,28 -24,52 -22,54c2,1 13,8 26,14c19,10 22,20 22,71c0,77 -16,90 -117,90l-73,0l0,-146zm140,82c6,-8 10,-25 8,-38c-3,-20 -10,-23 -50,-26l-48,-3l0,40c0,41 0,41 39,41c21,0 44,-6 51,-14z" fill="#e11138" id="svg_5"/>
   <path d="m2740,-249l0,-141l25,0l26,0l-3,138c-3,134 -4,137 -25,140c-23,3 -23,3 -23,-137z" fill="#e11138" id="svg_6"/>
   <path d="m2820,-115c0,-6 38,-159 61,-248c10,-37 11,-38 52,-35l42,3l32,130c18,72 32,136 33,143c0,6 -11,12 -25,12c-14,0 -25,-2 -25,-5c0,-5 -32,-153 -46,-214c-9,-41 -22,-11 -47,104c-22,105 -25,110 -50,113c-15,2 -27,0 -27,-3z" fill="#e11138" id="svg_7"/>
   <path d="m3080,-226c0,-63 5,-124 10,-134c12,-23 68,-40 133,-40c44,0 47,2 47,25c0,23 -3,25 -51,25c-66,0 -89,13 -89,50l0,30l70,0c63,0 70,2 70,20c0,18 -7,20 -70,20l-70,0l0,35l0,35l70,0c68,0 70,1 70,25c0,25 0,25 -95,25l-95,0l0,-116z" fill="#e11138" id="svg_8"/>
   <path d="m1331,-136c0,-11 3,-14 6,-6c3,7 2,16 -1,19c-3,4 -6,-2 -5,-13z" fill="#e11138" id="svg_9"/>
   <path d="m1051,-176c0,-11 3,-14 6,-6c3,7 2,16 -1,19c-3,4 -6,-2 -5,-13z" fill="#e11138" id="svg_10"/>
   <path d="m463,-187c20,-2 54,-2 75,0c20,2 3,4 -38,4c-41,0 -58,-2 -37,-4z" fill="#e11138" id="svg_11"/>
   <path d="m1332,-315c0,-16 2,-22 5,-12c2,9 2,23 0,30c-3,6 -5,-1 -5,-18z" fill="#e11138" id="svg_12"/>
   <path d="m268,-307c6,-2 18,-2 25,0c6,3 1,5 -13,5c-14,0 -19,-2 -12,-5z" fill="#e11138" id="svg_13"/>
   <path d="m513,-311c-34,-10 -73,-52 -72,-78c0,-11 3,-10 9,5c18,44 58,64 129,64c73,0 125,-23 141,-63c5,-13 9,-16 9,-7c1,25 -29,61 -65,76c-37,16 -103,17 -151,3z" fill="#e11138" id="svg_14"/>
   <path d="m1640,-309c-19,-4 -45,-13 -57,-19c-23,-13 -53,-60 -53,-84c0,-7 8,3 18,22c25,51 73,72 147,66c56,-4 63,-8 99,-48c36,-39 37,-40 20,-10c-24,42 -41,56 -83,71c-37,12 -39,12 -91,2z" fill="#e11138" id="svg_15"/>
   <path d="m2053,-357c9,-2 23,-2 30,0c6,3 -1,5 -18,5c-16,0 -22,-2 -12,-5z" fill="#e11138" id="svg_16"/>
   <path d="m370,-370c0,-5 11,-10 24,-10c14,0 28,5 31,10c4,6 -7,10 -24,10c-17,0 -31,-4 -31,-10z" fill="#e11138" id="svg_17"/>
   <path d="m1250,-460c118,-4 219,-3 224,2c6,4 -91,7 -215,6l-224,-1l215,-7z" fill="#e11138" id="svg_18"/>
  </g>
 </g>
</svg>