<?xml version="1.0" standalone="no"?>
<!DOCTYPE svg PUBLIC "-//W3C//DTD SVG 20010904//EN"
 "http://www.w3.org/TR/2001/REC-SVG-20010904/DTD/svg10.dtd">
<svg version="1.0" xmlns="http://www.w3.org/2000/svg"
 width="330.000000pt" height="52.000000pt" viewBox="0 0 330.000000 52.000000"
 preserveAspectRatio="xMidYMid meet">

<g transform="translate(0.000000,52.000000) scale(0.100000,-0.100000)"
fill="#000000" stroke="none">
<path d="M1037 466 c-32 -12 -167 -119 -167 -132 0 -9 23 8 81 57 31 27 68 53
83 59 15 5 82 10 149 10 101 0 135 -4 205 -26 118 -36 194 -73 190 -93 -5 -23
-227 -33 -588 -25 -293 6 -511 -4 -675 -31 -92 -15 -106 -23 -103 -65 l1 -25
4 25 c7 37 12 40 104 57 64 11 180 16 489 19 223 2 549 6 725 9 225 5 342 3
395 -5 41 -7 104 -15 140 -19 57 -5 65 -9 71 -31 6 -22 7 -20 8 11 l1 36 -82
6 c-91 6 -155 24 -359 98 -156 56 -210 65 -459 73 -137 5 -183 3 -213 -8z"/>
<path d="M70 271 l0 -141 25 0 26 0 -3 138 c-3 134 -4 137 -25 140 -23 3 -23
3 -23 -137z"/>
<path d="M2240 265 l0 -147 79 3 c95 5 115 19 131 92 14 65 4 132 -25 165 -21
24 -31 27 -104 30 l-81 4 0 -147z m149 86 c23 -15 27 -125 7 -156 -14 -21 -24
-25 -61 -25 l-45 0 0 95 0 95 43 0 c23 0 48 -4 56 -9z"/>
<path d="M2500 264 c0 -145 0 -145 23 -142 19 3 22 10 25 61 4 79 28 79 67 -3
23 -48 33 -60 52 -60 29 0 29 0 -3 61 -14 28 -24 52 -22 54 2 1 13 8 26 14 19
10 22 20 22 71 0 77 -16 90 -117 90 l-73 0 0 -146z m140 82 c6 -8 10 -25 8
-38 -3 -20 -10 -23 -50 -26 l-48 -3 0 40 c0 41 0 41 39 41 21 0 44 -6 51 -14z"/>
<path d="M2740 271 l0 -141 25 0 26 0 -3 138 c-3 134 -4 137 -25 140 -23 3
-23 3 -23 -137z"/>
<path d="M2820 405 c0 -6 38 -159 61 -248 10 -37 11 -38 52 -35 l42 3 32 130
c18 72 32 136 33 143 0 6 -11 12 -25 12 -14 0 -25 -2 -25 -5 0 -5 -32 -153
-46 -214 -9 -41 -22 -11 -47 104 -22 105 -25 110 -50 113 -15 2 -27 0 -27 -3z"/>
<path d="M3080 294 c0 -63 5 -124 10 -134 12 -23 68 -40 133 -40 44 0 47 2 47
25 0 23 -3 25 -51 25 -66 0 -89 13 -89 50 l0 30 70 0 c63 0 70 2 70 20 0 18
-7 20 -70 20 l-70 0 0 35 0 35 70 0 c68 0 70 1 70 25 0 25 0 25 -95 25 l-95 0
0 -116z"/>
<path d="M1331 384 c0 -11 3 -14 6 -6 3 7 2 16 -1 19 -3 4 -6 -2 -5 -13z"/>
<path d="M1051 344 c0 -11 3 -14 6 -6 3 7 2 16 -1 19 -3 4 -6 -2 -5 -13z"/>
<path d="M463 333 c20 -2 54 -2 75 0 20 2 3 4 -38 4 -41 0 -58 -2 -37 -4z"/>
<path d="M1332 205 c0 -16 2 -22 5 -12 2 9 2 23 0 30 -3 6 -5 -1 -5 -18z"/>
<path d="M268 213 c6 -2 18 -2 25 0 6 3 1 5 -13 5 -14 0 -19 -2 -12 -5z"/>
<path d="M513 209 c-34 -10 -73 -52 -72 -78 0 -11 3 -10 9 5 18 44 58 64 129
64 73 0 125 -23 141 -63 5 -13 9 -16 9 -7 1 25 -29 61 -65 76 -37 16 -103 17
-151 3z"/>
<path d="M1640 211 c-19 -4 -45 -13 -57 -19 -23 -13 -53 -60 -53 -84 0 -7 8 3
18 22 25 51 73 72 147 66 56 -4 63 -8 99 -48 36 -39 37 -40 20 -10 -24 42 -41
56 -83 71 -37 12 -39 12 -91 2z"/>
<path d="M2053 163 c9 -2 23 -2 30 0 6 3 -1 5 -18 5 -16 0 -22 -2 -12 -5z"/>
<path d="M370 150 c0 -5 11 -10 24 -10 14 0 28 5 31 10 4 6 -7 10 -24 10 -17
0 -31 -4 -31 -10z"/>
<path d="M1250 60 c118 -4 219 -3 224 2 6 4 -91 7 -215 6 l-224 -1 215 -7z"/>
</g>
</svg>
